<?xml version="1.0" encoding="utf-8"?>
<!-- Generator: Adobe Illustrator 16.0.0, SVG Export Plug-In . SVG Version: 6.00 Build 0)  -->
<!DOCTYPE svg PUBLIC "-//W3C//DTD SVG 1.1//EN" "http://www.w3.org/Graphics/SVG/1.1/DTD/svg11.dtd">
<svg version="1.1" id="Calque_1" xmlns="http://www.w3.org/2000/svg" xmlns:xlink="http://www.w3.org/1999/xlink" x="0px" y="0px"
	 width="141.73px" height="141.73px" viewBox="0 0 141.73 141.73" enable-background="new 0 0 141.73 141.73" xml:space="preserve">
<circle fill="#969696" cx="70.865" cy="70.865" r="70.865"/>
<path display="none" fill="#FFFFFF" d="M17.589,77.34h12.354c0.34,1.433,0.958,2.462,1.853,3.088c0.895,0.627,2.229,0.94,4.001,0.94
	c1.486,0,2.654-0.255,3.505-0.765c0.85-0.512,1.275-1.213,1.275-2.109c0-1.432-1.782-2.596-5.344-3.49
	c-0.716-0.18-1.262-0.313-1.638-0.403c-2.918-0.752-5.241-1.437-6.969-2.054c-1.728-0.619-2.986-1.196-3.773-1.733
	c-1.522-1.092-2.663-2.399-3.424-3.921c-0.761-1.521-1.142-3.258-1.142-5.21c0-3.921,1.477-7,4.431-9.238
	c2.954-2.238,7.018-3.357,12.192-3.357c5.084,0,9.086,1.07,12.004,3.209c2.918,2.139,4.565,5.206,4.941,9.198H39.798
	c-0.197-1.164-0.711-2.032-1.544-2.605c-0.832-0.573-2.019-0.859-3.558-0.859c-1.361,0-2.373,0.224-3.035,0.671
	c-0.663,0.448-0.994,1.128-0.994,2.041c0,1.307,1.736,2.399,5.21,3.276c0.304,0.09,0.537,0.152,0.698,0.188
	c0.501,0.125,1.262,0.313,2.283,0.564c4.601,1.164,7.609,2.22,9.023,3.169c1.754,1.164,3.035,2.489,3.84,3.975
	c0.806,1.486,1.208,3.241,1.208,5.264c0,4.368-1.526,7.726-4.579,10.071c-3.052,2.346-7.425,3.518-13.119,3.518
	c-5.246,0-9.404-1.172-12.474-3.518C19.688,84.904,17.965,81.602,17.589,77.34z"/>
<path display="none" fill="#FFFFFF" d="M55.651,89.666V50.108h31.611v9.48H68.354v5.264h15.984v9.078H68.354v6.123h19.686v9.613
	H55.651z"/>
<path display="none" fill="#FFFFFF" d="M92.121,89.666V80.16l18.314-19.82H92.711V50.108h33.328v9.426l-18.531,19.954h19.525v10.178
	H92.121z"/>
<g>
	<path fill-rule="evenodd" clip-rule="evenodd" fill="#FFFFFF" d="M67.721,94.795c-0.173,0.145-0.356,0.28-0.518,0.438
		c-3.227,3.132-6.465,6.251-9.667,9.409c-0.977,0.963-2.116,1.335-3.44,1.333c-3.228-0.006-6.456-0.001-9.683-0.001
		c-4.54,0-9.08,0.012-13.62-0.007c-2.461-0.01-4.274-1.533-4.729-3.92c-0.052-0.272-0.063-0.556-0.063-0.834
		c-0.003-7.789-0.007-15.578,0.001-23.367c0.002-1.365,0.446-2.537,1.465-3.519c4.803-4.629,9.585-9.278,14.356-13.939
		c0.677-0.662,1.422-1.003,2.365-0.955c0.494,0.025,0.989,0.005,1.484,0.004c0.863-0.002,0.865-0.003,0.865-0.842
		c0.001-2.733-0.007-5.465,0.007-8.198c0.003-0.579,0.033-1.167,0.142-1.733c0.183-0.942,0.589-1.763,1.309-2.458
		c4.846-4.677,9.67-9.375,14.495-14.074c0.586-0.571,1.243-0.859,2.076-0.858c9.037,0.013,18.074,0.007,27.111,0.009
		c1.679,0,2.64,0.965,2.64,2.645c0.001,8.177,0.001,16.354,0.001,24.53c0,0.979,0.001,0.979,1,0.979
		c5.831,0,11.663,0.029,17.494-0.02c1.47-0.012,2.861,0.865,2.848,2.804c-0.058,8.456-0.033,16.912-0.013,25.368
		c0.002,0.932-0.299,1.643-0.965,2.284c-4.757,4.583-9.497,9.184-14.242,13.778c-0.108,0.105-0.229,0.2-0.32,0.318
		c-1.229,1.591-2.869,2.045-4.832,2.028c-7.487-0.061-14.976-0.019-22.464-0.029c-2.445-0.003-4.182-1.337-4.765-3.639
		c-0.099-0.39-0.108-0.809-0.111-1.214c-0.011-1.829-0.004-3.658-0.008-5.487c0-0.249-0.026-0.498-0.04-0.747
		C67.84,94.853,67.78,94.823,67.721,94.795z M84.369,77.801c0,0.001,0,0.002,0,0.003c-3.593,0-7.186-0.001-10.778,0.001
		c-0.864,0.001-0.916,0.048-0.916,0.911c-0.003,7.206-0.003,14.413,0,21.619c0,0.86,0.054,0.91,0.918,0.91
		c7.207,0.002,14.414,0.002,21.62,0c0.873,0,0.892-0.021,0.892-0.915c0.001-7.206,0.001-14.413,0-21.62
		c0-0.895-0.011-0.907-0.894-0.908C91.597,77.8,87.982,77.801,84.369,77.801z M63.041,49.642c-3.592,0-7.184,0-10.775,0
		c-0.921,0-0.924,0.002-0.924,0.939c-0.001,7.162-0.001,14.324,0,21.486c0,0.963,0.029,0.996,1.029,0.998
		c2.667,0.004,5.333,0.002,8,0.002c4.474,0,8.947,0.002,13.421-0.003c0.95,0,0.993-0.05,0.993-0.973
		c0.001-7.205,0.002-14.411-0.001-21.615c0-0.802-0.036-0.833-0.839-0.834C70.311,49.641,66.676,49.642,63.041,49.642z
		 M54.151,89.593c0-3.657-0.011-7.314,0.011-10.971c0.004-0.606-0.168-0.83-0.798-0.828c-7.271,0.016-14.542,0.014-21.813-0.002
		c-0.593-0.001-0.771,0.198-0.77,0.786c0.017,7.293,0.018,14.585-0.001,21.877c-0.002,0.643,0.231,0.801,0.827,0.8
		c7.249-0.014,14.499-0.015,21.748,0.001c0.62,0.001,0.811-0.205,0.807-0.821C54.139,96.82,54.151,93.206,54.151,89.593z
		 M79.666,68.099c0.292-0.228,0.449-0.328,0.581-0.456c2.921-2.825,5.847-5.646,8.741-8.498c0.271-0.266,0.481-0.734,0.483-1.109
		c0.03-5.764,0.021-11.528,0.018-17.292c0-0.221-0.048-0.441-0.088-0.788c-0.256,0.2-0.412,0.302-0.546,0.428
		c-2.924,2.759-5.854,5.511-8.752,8.297c-0.27,0.26-0.464,0.738-0.466,1.117c-0.028,5.807-0.021,11.614-0.019,17.42
		C79.619,67.448,79.643,67.679,79.666,68.099z M110.75,68.124c-0.25,0.167-0.366,0.224-0.456,0.309
		c-2.987,2.846-5.98,5.686-8.941,8.559c-0.252,0.243-0.4,0.712-0.401,1.077c-0.024,5.805-0.018,11.609-0.016,17.414
		c0,0.223,0.026,0.445,0.048,0.771c0.218-0.152,0.346-0.22,0.447-0.316c0.934-0.889,1.865-1.78,2.793-2.677
		c2.009-1.941,4.004-3.897,6.031-5.82c0.375-0.355,0.563-0.698,0.562-1.219c-0.014-5.762-0.008-11.523-0.01-17.285
		C110.806,68.711,110.775,68.486,110.75,68.124z M56.609,44.643c0.028,0.063,0.056,0.127,0.084,0.19c0.274,0,0.549,0,0.823,0
		c5.634,0,11.268-0.006,16.902,0.01c0.594,0.002,1.196,0.101,1.778,0.232c0.385,0.087,0.642,0.025,0.919-0.249
		c2.738-2.704,5.488-5.397,8.23-8.097c0.141-0.138,0.246-0.313,0.452-0.582c-0.353-0.028-0.558-0.059-0.762-0.059
		c-6.387-0.002-12.773-0.007-19.159,0.015c-0.325,0.001-0.727,0.162-0.96,0.386c-2.649,2.549-5.273,5.125-7.902,7.696
		C56.87,44.328,56.744,44.49,56.609,44.643z M81.889,72.747c0.04,0.081,0.079,0.162,0.119,0.243c0.252,0,0.504,0,0.755,0
		c4.301,0,8.602-0.01,12.902,0.01c0.616,0.003,1.244,0.095,1.844,0.239c0.417,0.102,0.676,0.014,0.967-0.273
		c2.723-2.689,5.457-5.368,8.185-8.053c0.156-0.153,0.285-0.333,0.53-0.625c-0.379-0.021-0.585-0.042-0.791-0.043
		c-5.011-0.001-10.021-0.011-15.031,0.019c-0.379,0.002-0.842,0.203-1.12,0.465c-2.283,2.154-4.53,4.346-6.79,6.524
		C82.938,71.755,82.412,72.25,81.889,72.747z M59.046,96.284c0.432-0.355,0.726-0.565,0.982-0.814
		c2.45-2.382,4.888-4.776,7.346-7.151c0.39-0.376,0.542-0.791,0.54-1.315c-0.009-2.773-0.001-5.546-0.006-8.319
		c-0.001-0.77-0.079-0.846-0.855-0.848c-2.365-0.005-4.729-0.003-7.094-0.001c-0.934,0.001-0.977,0.045-0.978,0.987
		c-0.001,5.503-0.001,11.006,0.001,16.509C58.983,95.579,59.015,95.828,59.046,96.284z M35.919,72.919
		c0.361,0.036,0.528,0.068,0.695,0.068c3.073,0.003,6.145,0.002,9.218,0.003c0.36,0,0.698,0.007,0.697-0.511
		c-0.008-2.579,0.002-5.157-0.018-7.735c-0.001-0.16-0.193-0.445-0.313-0.455c-0.713-0.059-1.389-0.148-2.018,0.48
		c-2.522,2.521-5.105,4.98-7.663,7.466C36.341,72.406,36.192,72.604,35.919,72.919z"/>
	<path fill-rule="evenodd" clip-rule="evenodd" fill="#A5A5A5" d="M84.402,77.769c3.613,0,7.227-0.001,10.842,0.001
		c0.883,0.001,0.893,0.014,0.893,0.908c0.002,7.207,0.002,14.414,0,21.62c0,0.894-0.018,0.915-0.891,0.915
		c-7.207,0.002-14.414,0.002-21.621,0c-0.863,0-0.918-0.05-0.918-0.91c-0.002-7.206-0.002-14.413,0-21.619
		c0-0.863,0.053-0.91,0.916-0.911c3.594-0.002,7.186-0.001,10.779-0.001C84.402,77.771,84.402,77.77,84.402,77.769z"/>
	<path fill-rule="evenodd" clip-rule="evenodd" fill="#A5A5A5" d="M63.074,49.609c3.635,0,7.27-0.001,10.905,0.001
		c0.803,0,0.838,0.032,0.838,0.834c0.004,7.205,0.002,14.41,0.002,21.615c0,0.923-0.043,0.973-0.994,0.973
		c-4.473,0.005-8.947,0.003-13.42,0.003c-2.667,0-5.333,0.002-8-0.002c-1-0.002-1.029-0.035-1.029-0.998
		c-0.001-7.162-0.001-14.324,0-21.486c0-0.937,0.003-0.938,0.924-0.939C55.89,49.609,59.482,49.609,63.074,49.609z"/>
	<path fill-rule="evenodd" clip-rule="evenodd" fill="#A5A5A5" d="M54.184,89.561c0,3.613-0.012,7.228,0.012,10.842
		c0.004,0.616-0.188,0.822-0.807,0.821c-7.25-0.016-14.499-0.015-21.748-0.001c-0.596,0.001-0.829-0.157-0.827-0.8
		c0.02-7.292,0.018-14.584,0.001-21.877c-0.001-0.588,0.176-0.787,0.77-0.786c7.271,0.016,14.542,0.018,21.813,0.002
		c0.63-0.002,0.802,0.222,0.798,0.828C54.172,82.246,54.184,85.903,54.184,89.561z"/>
	<path fill-rule="evenodd" clip-rule="evenodd" fill="#A5A5A5" d="M79.699,68.066c-0.023-0.42-0.047-0.65-0.047-0.881
		c-0.002-5.807-0.01-11.614,0.018-17.42c0.002-0.378,0.197-0.857,0.467-1.117c2.896-2.786,5.828-5.538,8.752-8.297
		c0.133-0.126,0.289-0.229,0.545-0.428c0.041,0.347,0.088,0.567,0.088,0.788c0.004,5.764,0.014,11.528-0.018,17.292
		c-0.002,0.375-0.213,0.843-0.482,1.109c-2.895,2.852-5.82,5.672-8.742,8.498C80.148,67.738,79.99,67.839,79.699,68.066z"/>
	<path fill-rule="evenodd" clip-rule="evenodd" fill="#A5A5A5" d="M110.783,68.092c0.025,0.362,0.055,0.587,0.057,0.812
		c0.002,5.762-0.004,11.523,0.01,17.285c0.002,0.521-0.188,0.863-0.563,1.219c-2.027,1.923-4.021,3.879-6.031,5.82
		c-0.928,0.896-1.859,1.788-2.793,2.677c-0.102,0.097-0.229,0.164-0.447,0.316c-0.021-0.325-0.047-0.548-0.047-0.771
		c-0.002-5.805-0.01-11.609,0.016-17.414c0-0.365,0.148-0.834,0.4-1.077c2.961-2.873,5.955-5.713,8.941-8.559
		C110.416,68.315,110.533,68.259,110.783,68.092z"/>
	<path fill-rule="evenodd" clip-rule="evenodd" fill="#A5A5A5" d="M56.642,44.61c0.135-0.153,0.261-0.315,0.406-0.458
		c2.629-2.571,5.252-5.146,7.902-7.696c0.233-0.224,0.635-0.385,0.96-0.386c6.385-0.022,12.772-0.018,19.159-0.015
		c0.205,0,0.41,0.031,0.762,0.059c-0.205,0.269-0.311,0.444-0.451,0.582c-2.742,2.7-5.492,5.394-8.23,8.097
		c-0.277,0.273-0.535,0.336-0.92,0.249c-0.582-0.131-1.184-0.23-1.777-0.232c-5.635-0.017-11.268-0.01-16.902-0.01
		c-0.274,0-0.548,0-0.823,0C56.698,44.737,56.67,44.674,56.642,44.61z"/>
	<path fill-rule="evenodd" clip-rule="evenodd" fill="#A5A5A5" d="M81.922,72.715c0.523-0.497,1.049-0.992,1.568-1.493
		c2.26-2.179,4.508-4.37,6.791-6.524c0.277-0.263,0.74-0.463,1.119-0.465c5.01-0.03,10.021-0.021,15.031-0.019
		c0.207,0,0.412,0.022,0.791,0.043c-0.244,0.292-0.373,0.472-0.529,0.625c-2.729,2.685-5.463,5.363-8.186,8.053
		c-0.291,0.287-0.549,0.375-0.967,0.273c-0.6-0.145-1.227-0.236-1.844-0.239c-4.301-0.02-8.602-0.01-12.902-0.01
		c-0.25,0-0.502,0-0.754,0C82,72.877,81.961,72.796,81.922,72.715z"/>
	<path fill-rule="evenodd" clip-rule="evenodd" fill="#A5A5A5" d="M59.046,96.284c-0.031-0.456-0.063-0.705-0.063-0.953
		c-0.003-5.503-0.003-11.006-0.001-16.509c0-0.942,0.043-0.986,0.978-0.987c2.364-0.002,4.729-0.004,7.094,0.001
		c0.776,0.002,0.854,0.078,0.855,0.848c0.005,2.773-0.003,5.546,0.006,8.319c0.002,0.524-0.15,0.939-0.54,1.315
		c-2.458,2.375-4.896,4.77-7.346,7.151C59.772,95.719,59.478,95.929,59.046,96.284z"/>
	<path fill-rule="evenodd" clip-rule="evenodd" fill="#A5A5A5" d="M35.919,72.919c0.273-0.314,0.422-0.513,0.598-0.684
		c2.558-2.485,5.141-4.944,7.663-7.466c0.628-0.628,1.304-0.54,2.018-0.48c0.121,0.01,0.313,0.295,0.313,0.455
		c0.02,2.578,0.01,5.156,0.018,7.735c0.001,0.518-0.336,0.511-0.697,0.511c-3.073-0.001-6.145,0-9.218-0.003
		C36.447,72.987,36.28,72.955,35.919,72.919z"/>
</g>
</svg>
