<?xml version="1.0" encoding="utf-8"?>
<!-- Generator: Adobe Illustrator 16.0.0, SVG Export Plug-In . SVG Version: 6.00 Build 0)  -->
<!DOCTYPE svg PUBLIC "-//W3C//DTD SVG 1.1//EN" "http://www.w3.org/Graphics/SVG/1.1/DTD/svg11.dtd">
<svg version="1.1" id="Calque_1" xmlns="http://www.w3.org/2000/svg" xmlns:xlink="http://www.w3.org/1999/xlink" x="0px" y="0px"
	 width="141.73px" height="141.73px" viewBox="0 0 141.73 141.73" enable-background="new 0 0 141.73 141.73" xml:space="preserve">
<circle fill="#FFE106" cx="70.865" cy="70.865" r="70.5"/>
<g display="none">
	<path display="inline" fill="#FFFFFF" d="M67.721,94.795c-0.174,0.146-0.356,0.28-0.519,0.438
		c-3.227,3.132-6.465,6.251-9.667,9.409c-0.977,0.963-2.116,1.335-3.439,1.333c-3.229-0.006-6.456-0.001-9.684-0.001
		c-4.54,0-9.08,0.012-13.62-0.008c-2.461-0.01-4.273-1.532-4.729-3.92c-0.052-0.271-0.063-0.556-0.063-0.834
		c-0.003-7.789-0.007-15.577,0.001-23.366c0.002-1.365,0.446-2.537,1.465-3.52c4.804-4.629,9.586-9.278,14.356-13.938
		c0.677-0.662,1.422-1.003,2.365-0.955c0.494,0.024,0.989,0.005,1.483,0.004c0.863-0.002,0.865-0.003,0.865-0.842
		c0.001-2.733-0.007-5.466,0.007-8.198c0.003-0.579,0.033-1.167,0.143-1.733c0.183-0.941,0.589-1.763,1.309-2.458
		c4.846-4.677,9.67-9.375,14.495-14.074c0.586-0.57,1.243-0.858,2.076-0.857c9.037,0.013,18.074,0.007,27.111,0.009
		c1.679,0,2.64,0.965,2.64,2.646c0.001,8.177,0.001,16.354,0.001,24.529c0,0.979,0.001,0.979,1,0.979
		c5.831,0,11.663,0.028,17.494-0.021c1.47-0.012,2.86,0.865,2.848,2.805c-0.058,8.456-0.033,16.911-0.013,25.367
		c0.002,0.933-0.299,1.644-0.965,2.284c-4.758,4.583-9.497,9.185-14.242,13.778c-0.108,0.104-0.229,0.2-0.32,0.318
		c-1.229,1.591-2.869,2.045-4.832,2.027c-7.487-0.061-14.976-0.019-22.464-0.029c-2.445-0.003-4.182-1.337-4.765-3.639
		c-0.1-0.39-0.108-0.809-0.111-1.214c-0.011-1.829-0.004-3.658-0.008-5.487c0-0.249-0.026-0.498-0.04-0.747
		C67.84,94.853,67.78,94.823,67.721,94.795z M84.369,77.801c0,0.002,0,0.003,0,0.004c-3.593,0-7.186-0.001-10.778,0.001
		c-0.863,0.001-0.916,0.048-0.916,0.91c-0.003,7.206-0.003,14.413,0,21.619c0,0.86,0.055,0.91,0.918,0.91
		c7.207,0.002,14.414,0.002,21.62,0c0.873,0,0.893-0.021,0.893-0.915c0.001-7.206,0.001-14.413,0-21.62
		c0-0.895-0.011-0.906-0.895-0.907C91.597,77.8,87.982,77.801,84.369,77.801z M63.041,49.642c-3.592,0-7.184,0-10.774,0
		c-0.921,0-0.925,0.002-0.925,0.938c-0.001,7.162-0.001,14.324,0,21.486c0,0.963,0.029,0.996,1.029,0.998
		c2.667,0.004,5.333,0.002,8,0.002c4.475,0,8.947,0.002,13.421-0.003c0.95,0,0.993-0.05,0.993-0.974
		c0.001-7.204,0.002-14.41-0.001-21.614c0-0.803-0.036-0.833-0.839-0.834C70.311,49.641,66.676,49.642,63.041,49.642z
		 M54.151,89.594c0-3.657-0.011-7.314,0.011-10.972c0.004-0.605-0.168-0.83-0.798-0.828c-7.271,0.017-14.542,0.015-21.813-0.002
		c-0.593-0.001-0.771,0.198-0.77,0.786c0.017,7.293,0.018,14.585-0.001,21.877c-0.002,0.644,0.231,0.801,0.827,0.8
		c7.249-0.014,14.499-0.015,21.748,0.001c0.62,0.001,0.811-0.205,0.807-0.82C54.139,96.82,54.151,93.206,54.151,89.594z
		 M79.666,68.099c0.292-0.229,0.449-0.328,0.581-0.456c2.921-2.825,5.848-5.646,8.741-8.498c0.271-0.267,0.481-0.734,0.483-1.109
		c0.029-5.764,0.021-11.528,0.018-17.292c0-0.221-0.048-0.44-0.088-0.788c-0.256,0.2-0.412,0.302-0.546,0.428
		c-2.924,2.76-5.854,5.512-8.752,8.298c-0.271,0.26-0.464,0.737-0.466,1.116c-0.028,5.808-0.021,11.614-0.02,17.421
		C79.619,67.448,79.643,67.679,79.666,68.099z M110.75,68.124c-0.25,0.167-0.366,0.225-0.456,0.31
		c-2.986,2.846-5.979,5.686-8.94,8.559c-0.252,0.243-0.4,0.712-0.401,1.077c-0.023,5.805-0.018,11.609-0.016,17.414
		c0,0.223,0.025,0.445,0.048,0.771c0.218-0.151,0.346-0.22,0.447-0.315c0.934-0.89,1.864-1.78,2.793-2.677
		c2.009-1.941,4.004-3.897,6.03-5.82c0.375-0.355,0.563-0.698,0.563-1.219c-0.014-5.763-0.008-11.523-0.01-17.285
		C110.806,68.711,110.775,68.486,110.75,68.124z M56.609,44.643c0.028,0.063,0.056,0.127,0.084,0.189c0.273,0,0.549,0,0.823,0
		c5.634,0,11.268-0.006,16.901,0.01c0.595,0.003,1.196,0.102,1.778,0.232c0.385,0.087,0.642,0.025,0.919-0.249
		c2.738-2.704,5.488-5.396,8.23-8.097c0.141-0.139,0.245-0.313,0.451-0.582c-0.353-0.028-0.558-0.06-0.762-0.06
		c-6.387-0.002-12.772-0.007-19.159,0.016c-0.325,0.001-0.727,0.162-0.96,0.386c-2.648,2.549-5.272,5.125-7.901,7.696
		C56.87,44.328,56.744,44.49,56.609,44.643z M81.889,72.747c0.04,0.081,0.078,0.162,0.118,0.243c0.252,0,0.505,0,0.756,0
		c4.301,0,8.602-0.01,12.901,0.01c0.616,0.003,1.244,0.096,1.844,0.239c0.417,0.102,0.677,0.014,0.968-0.273
		c2.723-2.688,5.457-5.367,8.185-8.053c0.156-0.152,0.285-0.333,0.53-0.625c-0.379-0.021-0.585-0.042-0.791-0.043
		c-5.011-0.001-10.021-0.011-15.031,0.02c-0.379,0.002-0.842,0.202-1.12,0.465c-2.283,2.153-4.529,4.346-6.79,6.523
		C82.938,71.755,82.412,72.25,81.889,72.747z M59.046,96.284c0.433-0.354,0.727-0.564,0.982-0.813
		c2.45-2.383,4.888-4.776,7.346-7.151c0.391-0.376,0.542-0.791,0.54-1.315c-0.009-2.772-0.001-5.546-0.006-8.318
		c-0.001-0.771-0.079-0.847-0.854-0.849c-2.365-0.005-4.729-0.003-7.095-0.001c-0.934,0.001-0.977,0.045-0.978,0.987
		c-0.001,5.503-0.001,11.006,0.001,16.509C58.983,95.579,59.015,95.828,59.046,96.284z M35.919,72.919
		c0.361,0.036,0.528,0.068,0.695,0.068c3.073,0.003,6.145,0.002,9.218,0.003c0.36,0,0.698,0.007,0.697-0.511
		c-0.008-2.579,0.002-5.157-0.018-7.735c-0.002-0.16-0.193-0.445-0.313-0.455c-0.713-0.059-1.389-0.147-2.018,0.48
		c-2.522,2.521-5.105,4.979-7.663,7.466C36.341,72.406,36.192,72.604,35.919,72.919z"/>
	<path display="inline" fill="#A5A5A5" d="M84.402,77.769c3.613,0,7.227-0.001,10.842,0.001c0.883,0.001,0.894,0.014,0.894,0.908
		c0.002,7.207,0.002,14.413,0,21.619c0,0.895-0.019,0.915-0.892,0.915c-7.207,0.002-14.414,0.002-21.621,0
		c-0.862,0-0.918-0.05-0.918-0.909c-0.002-7.206-0.002-14.413,0-21.619c0-0.863,0.053-0.91,0.916-0.911
		c3.594-0.002,7.187-0.001,10.779-0.001C84.402,77.771,84.402,77.77,84.402,77.769z"/>
	<path display="inline" fill="#A5A5A5" d="M63.074,49.609c3.635,0,7.271-0.001,10.905,0.001c0.803,0,0.838,0.032,0.838,0.834
		c0.004,7.205,0.002,14.41,0.002,21.615c0,0.923-0.043,0.973-0.994,0.973c-4.473,0.005-8.947,0.003-13.42,0.003
		c-2.667,0-5.333,0.002-8-0.002c-1-0.002-1.029-0.035-1.029-0.998c-0.001-7.162-0.001-14.324,0-21.486
		c0-0.937,0.003-0.938,0.924-0.938C55.89,49.609,59.482,49.609,63.074,49.609z"/>
	<path display="inline" fill="#A5A5A5" d="M54.184,89.561c0,3.612-0.013,7.228,0.012,10.842c0.004,0.616-0.188,0.822-0.807,0.821
		c-7.25-0.017-14.499-0.016-21.748-0.001c-0.597,0.001-0.829-0.157-0.827-0.801c0.02-7.292,0.018-14.584,0.001-21.877
		c-0.001-0.588,0.176-0.787,0.77-0.785c7.271,0.016,14.542,0.018,21.813,0.002c0.63-0.002,0.802,0.222,0.798,0.827
		C54.172,82.246,54.184,85.903,54.184,89.561z"/>
	<path display="inline" fill="#A5A5A5" d="M79.699,68.066c-0.023-0.42-0.047-0.65-0.047-0.881c-0.002-5.808-0.01-11.614,0.018-17.42
		c0.002-0.378,0.197-0.857,0.468-1.117c2.896-2.786,5.827-5.538,8.752-8.297c0.133-0.126,0.289-0.229,0.545-0.429
		c0.041,0.348,0.088,0.567,0.088,0.788c0.004,5.765,0.014,11.528-0.019,17.292c-0.002,0.375-0.213,0.844-0.481,1.109
		c-2.896,2.852-5.82,5.672-8.742,8.498C80.148,67.738,79.99,67.839,79.699,68.066z"/>
	<path display="inline" fill="#A5A5A5" d="M110.783,68.092c0.025,0.362,0.055,0.588,0.057,0.813
		c0.002,5.762-0.004,11.523,0.011,17.285c0.002,0.521-0.188,0.863-0.563,1.219c-2.027,1.923-4.021,3.879-6.031,5.82
		c-0.928,0.896-1.858,1.788-2.793,2.677c-0.102,0.097-0.229,0.164-0.446,0.316c-0.021-0.325-0.047-0.549-0.047-0.771
		c-0.003-5.805-0.011-11.609,0.016-17.414c0-0.365,0.147-0.834,0.399-1.077c2.962-2.873,5.955-5.713,8.941-8.559
		C110.416,68.315,110.533,68.259,110.783,68.092z"/>
	<path display="inline" fill="#A5A5A5" d="M56.642,44.61c0.135-0.153,0.261-0.315,0.405-0.458c2.629-2.571,5.252-5.146,7.902-7.696
		c0.233-0.224,0.635-0.385,0.96-0.386c6.385-0.022,12.772-0.018,19.159-0.015c0.205,0,0.41,0.03,0.762,0.059
		c-0.205,0.269-0.311,0.444-0.451,0.582c-2.741,2.7-5.491,5.394-8.229,8.097c-0.277,0.273-0.535,0.336-0.92,0.249
		c-0.582-0.131-1.185-0.229-1.777-0.231C68.818,44.793,63.185,44.8,57.551,44.8c-0.273,0-0.548,0-0.822,0
		C56.698,44.737,56.67,44.674,56.642,44.61z"/>
	<path display="inline" fill="#A5A5A5" d="M81.922,72.715c0.523-0.497,1.05-0.991,1.568-1.492c2.26-2.18,4.508-4.37,6.791-6.524
		c0.277-0.263,0.74-0.463,1.119-0.465c5.01-0.03,10.021-0.021,15.031-0.02c0.207,0,0.411,0.022,0.791,0.043
		c-0.244,0.292-0.373,0.473-0.529,0.625c-2.729,2.686-5.463,5.363-8.187,8.054c-0.291,0.287-0.549,0.375-0.967,0.272
		c-0.6-0.145-1.227-0.235-1.844-0.238c-4.301-0.021-8.602-0.011-12.902-0.011c-0.25,0-0.502,0-0.754,0
		C82,72.877,81.961,72.796,81.922,72.715z"/>
	<path display="inline" fill="#A5A5A5" d="M59.046,96.284c-0.03-0.456-0.063-0.705-0.063-0.953
		c-0.003-5.503-0.003-11.006-0.001-16.509c0-0.942,0.043-0.986,0.978-0.987c2.364-0.002,4.729-0.004,7.095,0.001
		c0.775,0.002,0.854,0.078,0.854,0.849c0.005,2.772-0.003,5.546,0.006,8.318c0.002,0.524-0.149,0.939-0.54,1.315
		c-2.458,2.375-4.896,4.77-7.346,7.151C59.772,95.719,59.478,95.929,59.046,96.284z"/>
	<path display="inline" fill="#A5A5A5" d="M35.919,72.919c0.273-0.313,0.422-0.513,0.599-0.684c2.558-2.485,5.141-4.944,7.663-7.466
		c0.628-0.628,1.304-0.54,2.018-0.48c0.121,0.01,0.313,0.295,0.313,0.455c0.02,2.578,0.01,5.156,0.018,7.735
		c0.001,0.518-0.336,0.511-0.697,0.511c-3.073-0.001-6.145,0-9.218-0.003C36.447,72.987,36.28,72.955,35.919,72.919z"/>
</g>
<path fill-rule="evenodd" clip-rule="evenodd" fill="#FFFFFF" d="M59.263,76.896c-7.142,0-13.985,0-21.035,0
	c1.257-2.438,2.418-4.718,3.596-6.987c8.98-17.294,17.975-34.58,26.915-51.894c0.566-1.097,1.156-1.51,2.425-1.503
	c11.631,0.055,23.253,0.031,34.884,0.028c0.385,0,0.761,0,1.388,0c-8.658,16.692-17.221,33.199-25.899,49.913
	c7.013,0,13.803,0,20.592,0c0.042,0.101,0.093,0.202,0.134,0.307c-22.83,19.917-45.664,39.829-68.498,59.752
	c-0.06-0.053-0.115-0.094-0.175-0.147C42.097,109.968,50.61,93.572,59.263,76.896z"/>
</svg>
