<?xml version="1.0" encoding="utf-8"?>
<!-- Generator: Adobe Illustrator 16.0.0, SVG Export Plug-In . SVG Version: 6.00 Build 0)  -->
<!DOCTYPE svg PUBLIC "-//W3C//DTD SVG 1.1//EN" "http://www.w3.org/Graphics/SVG/1.1/DTD/svg11.dtd">
<svg version="1.1" xmlns="http://www.w3.org/2000/svg" xmlns:xlink="http://www.w3.org/1999/xlink" x="0px" y="0px"
	 width="841.89px" height="595.28px" viewBox="0 0 841.89 595.28" enable-background="new 0 0 841.89 595.28" xml:space="preserve">
<g id="Calque_1" display="none">
	<rect x="187" y="124.326" display="inline" fill="#F0E2D4" stroke="#000000" stroke-miterlimit="10" width="136" height="35.333"/>
	<text transform="matrix(1 0 0 1 213.0415 148.9268)" display="inline" font-family="'MicrosoftJhengHeiUILight'" font-size="22">Article 1 </text>
	<rect x="495" y="124.326" display="inline" fill="#F0E2D4" stroke="#000000" stroke-miterlimit="10" width="136" height="35.333"/>
	<text transform="matrix(1 0 0 1 519.167 148.9268)" display="inline" font-family="'MicrosoftJhengHeiUILight'" font-size="22">Article 2 </text>
	<g display="inline">
		<rect x="302.667" y="245.787" fill="#B8C886" stroke="#000000" stroke-miterlimit="10" width="212.666" height="175.332"/>
		<polygon fill="none" points="506,416.129 312,416.775 312,254.13 506,254.13 		"/>
		<text transform="matrix(1 0 0 1 324.9043 271.7085)"><tspan x="0" y="0" font-family="'MicrosoftJhengHeiUILight'" font-size="22" text-decoration=" underline">Identified project </tspan><tspan x="-12.905" y="26.4" font-family="'MicrosoftJhengHeiUILight'" font-size="22">+ name</tspan><tspan x="-12.905" y="52.799" font-family="'MicrosoftJhengHeiUILight'" font-size="22">+ type</tspan><tspan x="-12.905" y="79.2" font-family="'MicrosoftJhengHeiUILight'" font-size="22">+ location</tspan><tspan x="-12.905" y="105.6" font-family="'MicrosoftJhengHeiUILight'" font-size="22">+ parent company</tspan><tspan x="-12.905" y="132" font-family="'MicrosoftJhengHeiUILight'" font-size="22">+ delivery date </tspan></text>
	</g>
	<rect x="341" y="508.96" display="inline" fill="#F0E2D4" stroke="#000000" stroke-miterlimit="10" width="136" height="35.333"/>
	<text transform="matrix(1 0 0 1 365.167 533.5605)" display="inline" font-family="'MicrosoftJhengHeiUILight'" font-size="22">Article 3 </text>
	<g display="inline">
		<line x1="255" y1="159.659" x2="343.333" y2="245.787"/>
		<g>
			<line fill="none" stroke="#000000" stroke-miterlimit="10" x1="255" y1="159.659" x2="339.059" y2="241.62"/>
			<g>
				<polygon points="334.463,242.31 338.175,240.757 339.633,237.007 343.333,245.787 				"/>
			</g>
		</g>
	</g>
	<g display="inline">
		<g>
			<line fill="none" stroke="#000000" stroke-miterlimit="10" x1="563" y1="159.659" x2="476.987" y2="241.667"/>
			<g>
				<polygon points="476.465,237.049 477.881,240.815 481.575,242.41 472.666,245.787 				"/>
			</g>
		</g>
	</g>
	<g display="inline">
		<line fill="#FFFFFF" x1="409" y1="508.959" x2="409" y2="421.119"/>
		<g>
			<line fill="none" stroke="#000000" stroke-miterlimit="10" x1="409" y1="508.959" x2="409" y2="427.089"/>
			<g>
				<polygon points="412.703,429.897 409,428.324 405.297,429.897 409,421.119 				"/>
			</g>
		</g>
	</g>
	<rect x="209.833" y="176.788" display="inline" fill="none" width="178.667" height="138"/>
	<text transform="matrix(1 0 0 1 209.833 188.7725)" display="inline"><tspan x="0" y="0" font-family="'MicrosoftJhengHeiUILight'" font-size="15">investor</tspan><tspan x="0" y="18" font-family="'MicrosoftJhengHeiUILight'" font-size="15">sector</tspan><tspan x="0" y="36" font-family="'MicrosoftJhengHeiUILight'" font-size="15">subsector</tspan><tspan x="0" y="54" fill="#9AA86A" font-family="'MicrosoftJhengHeiUIBold'" font-size="15">+type</tspan></text>
	<rect x="555.834" y="176.788" display="inline" fill="none" width="178.666" height="138"/>
	<text transform="matrix(1 0 0 1 555.834 188.7725)" display="inline"><tspan x="0" y="0" font-family="'MicrosoftJhengHeiUILight'" font-size="15">year</tspan><tspan x="0" y="18" font-family="'MicrosoftJhengHeiUILight'" font-size="15">investor</tspan><tspan x="0" y="36" font-family="'MicrosoftJhengHeiUILight'" font-size="15">transaction party</tspan><tspan x="0" y="54" fill="#9AA86A" font-family="'MicrosoftJhengHeiUIBold'" font-size="15">+name</tspan><tspan x="0" y="72" fill="#9AA86A" font-family="'MicrosoftJhengHeiUIBold'" font-size="15">+location</tspan></text>
	<rect x="416.667" y="439.28" display="inline" fill="none" width="178.666" height="138"/>
	<text transform="matrix(1 0 0 1 416.666 451.2656)" display="inline"><tspan x="0" y="0" font-family="'MicrosoftJhengHeiUILight'" font-size="15">investor</tspan><tspan x="0" y="18" font-family="'MicrosoftJhengHeiUILight'" font-size="15">transaction party</tspan><tspan x="0" y="36" fill="#9AA86A" font-family="'MicrosoftJhengHeiUIBold'" font-size="15">+delivery date</tspan></text>
</g>
<g id="Calque_2">
	<g>
		<rect x="302.667" y="245.787" fill="#B8C886" stroke="#000000" stroke-miterlimit="10" width="212.666" height="175.332"/>
		<polygon fill="none" points="506,416.129 312,416.775 312,254.13 506,254.13 		"/>
		<text transform="matrix(1 0 0 1 324.9043 271.7085)"><tspan x="0" y="0" font-family="'MicrosoftJhengHeiUILight'" font-size="22" text-decoration=" underline">Identified project </tspan><tspan x="-12.905" y="26.4" font-family="'MicrosoftJhengHeiUILight'" font-size="22">+ name</tspan><tspan x="-12.905" y="52.799" font-family="'MicrosoftJhengHeiUILight'" font-size="22">+ type</tspan><tspan x="-12.905" y="79.2" font-family="'MicrosoftJhengHeiUILight'" font-size="22">+ location</tspan><tspan x="-12.905" y="105.6" font-family="'MicrosoftJhengHeiUILight'" font-size="22">+ parent company</tspan><tspan x="-12.905" y="132" font-family="'MicrosoftJhengHeiUILight'" font-size="22">+ delivery date </tspan></text>
	</g>
	<rect x="302.667" y="43.96" fill="#E0B182" stroke="#000000" stroke-miterlimit="10" width="212.666" height="35.333"/>
	<text transform="matrix(1 0 0 1 340.0176 68.5605)" font-family="'MicrosoftJhengHeiUILight'" font-size="22">Annual report</text>
	<rect x="302.666" y="145.293" fill="#E0B182" stroke="#000000" stroke-miterlimit="10" width="212.666" height="35.333"/>
	<text transform="matrix(1 0 0 1 322.207 169.8936)" font-family="'MicrosoftJhengHeiUILight'" font-size="22">Official statement</text>
	<g>
		<g>
			<line fill="none" stroke="#000000" stroke-miterlimit="10" x1="408.999" y1="79.293" x2="408.999" y2="139.323"/>
			<g>
				<polygon points="405.295,136.515 408.999,138.088 412.702,136.515 408.999,145.293 				"/>
			</g>
		</g>
	</g>
	<g>
		<g>
			<line fill="none" stroke="#000000" stroke-miterlimit="10" x1="408.999" y1="180.626" x2="408.999" y2="239.817"/>
			<g>
				<polygon points="405.295,237.009 408.999,238.582 412.702,237.009 408.999,245.787 				"/>
			</g>
		</g>
	</g>
	<rect x="204.863" y="487.239" fill="#F0E2D4" stroke="#000000" stroke-miterlimit="10" width="136" height="35.333"/>
	<text transform="matrix(1 0 0 1 230.9048 511.8398)" font-family="'MicrosoftJhengHeiUILight'" font-size="22">Article 1 </text>
	<rect x="476.666" y="487.239" fill="#F0E2D4" stroke="#000000" stroke-miterlimit="10" width="136" height="35.333"/>
	<text transform="matrix(1 0 0 1 500.833 511.8398)" font-family="'MicrosoftJhengHeiUILight'" font-size="22">Article 2 </text>
	<g>
		<g>
			<line fill="none" stroke="#000000" stroke-miterlimit="10" x1="302.666" y1="487.239" x2="337.877" y2="426.288"/>
			<g>
				<polygon points="339.679,430.572 337.259,427.358 333.266,426.868 340.863,421.119 				"/>
			</g>
		</g>
	</g>
	<g>
		<g>
			<line fill="none" stroke="#000000" stroke-miterlimit="10" x1="515.333" y1="487.239" x2="479.68" y2="426.272"/>
			<g>
				<polygon points="484.294,426.827 480.304,427.339 477.9,430.566 476.666,421.119 				"/>
			</g>
		</g>
	</g>
	<rect x="420.944" y="84.788" fill="none" width="178.666" height="138"/>
	<text transform="matrix(1 0 0 1 420.9438 96.7725)"><tspan x="0" y="0" font-family="'MicrosoftJhengHeiUILight'" font-size="15">year</tspan><tspan x="0" y="18" font-family="'MicrosoftJhengHeiUILight'" font-size="15">quantity in Millions</tspan><tspan x="0" y="36" font-family="'MicrosoftJhengHeiUILight'" font-size="15">sector</tspan></text>
	<rect x="420.944" y="187.122" fill="none" width="178.666" height="138"/>
	<text transform="matrix(1 0 0 1 420.9434 199.1113)"><tspan x="0" y="0" fill="#9AA86A" font-family="'MicrosoftJhengHeiUIBold'" font-size="15">+name</tspan><tspan x="0" y="18" fill="#9AA86A" font-family="'MicrosoftJhengHeiUIBold'" font-size="15">+location</tspan><tspan x="0" y="36" fill="#9AA86A" font-family="'MicrosoftJhengHeiUIBold'" font-size="15">+type</tspan></text>
	<rect x="510.277" y="446.04" fill="none" width="178.666" height="137.999"/>
	<text transform="matrix(1 0 0 1 510.2773 458.0293)" fill="#9AA86A" font-family="'MicrosoftJhengHeiUIBold'" font-size="15">+other info</text>
	<rect x="204.863" y="446.04" fill="none" width="178.666" height="137.999"/>
	<text transform="matrix(1 0 0 1 204.8628 458.0293)" fill="#9AA86A" font-family="'MicrosoftJhengHeiUIBold'" font-size="15">+delivery date</text>
</g>
</svg>
